<svg xmlns="http://www.w3.org/2000/svg" version="1.1" width="192px" height="192px" style="shape-rendering:geometricPrecision; text-rendering:geometricPrecision; image-rendering:optimizeQuality; fill-rule:evenodd; clip-rule:evenodd" xmlns:xlink="http://www.w3.org/1999/xlink">
<g><path style="opacity:0.984" fill="#040404" d="M -0.5,6.5 C 63.5,6.5 127.5,6.5 191.5,6.5C 191.5,65.8333 191.5,125.167 191.5,184.5C 127.5,184.5 63.5,184.5 -0.5,184.5C -0.5,125.167 -0.5,65.8333 -0.5,6.5 Z"/></g>
<g><path style="opacity:1" fill="#eaeaea" d="M 78.5,17.5 C 114.436,13.5109 142.602,26.1776 163,55.5C 168.062,63.5222 171.228,72.1889 172.5,81.5C 170.833,81.5 169.167,81.5 167.5,81.5C 163.12,59.9373 151.453,43.4373 132.5,32C 91.5689,12.2752 57.4023,20.4418 30,56.5C 25.145,64.2069 21.9783,72.5403 20.5,81.5C 18.8333,81.5 17.1667,81.5 15.5,81.5C 23.7436,47.5899 44.7436,26.2565 78.5,17.5 Z"/></g>
<g><path style="opacity:1" fill="#e8e8e8" d="M 47.5,80.5 C 45.7163,81.7199 44.0496,81.7199 42.5,80.5C 51.0188,57.2285 67.6854,44.5618 92.5,42.5C 117.312,43.3152 134.812,54.9818 145,77.5C 145.991,79.4473 146.325,81.4473 146,83.5C 144.644,82.6198 143.144,82.2865 141.5,82.5C 133.224,59.8382 116.89,48.1715 92.5,47.5C 70.4279,49.0207 55.4279,60.0207 47.5,80.5 Z"/></g>
<g><path style="opacity:1" fill="#ebebeb" d="M 85.5,69.5 C 98.7154,67.0126 109.382,71.0126 117.5,81.5C 116.24,82.3816 115.074,83.3816 114,84.5C 107.688,75.9455 99.1884,72.4455 88.5,74C 78.9057,77.38 72.5724,83.88 69.5,93.5C 66.5918,88.7919 67.0918,84.4585 71,80.5C 74.9153,75.4765 79.7487,71.8099 85.5,69.5 Z"/></g>
<g><path style="opacity:1" fill="#575757" d="M 42.5,80.5 C 44.0496,81.7199 45.7163,81.7199 47.5,80.5C 47.0296,81.6935 46.0296,82.3601 44.5,82.5C 43.5,82.1667 42.5,81.8333 41.5,81.5C 41.6236,80.8933 41.9569,80.56 42.5,80.5 Z"/></g>
<g><path style="opacity:1" fill="#5f5e5e" d="M 20.5,89.5 C 20.5,88.1667 20.5,86.8333 20.5,85.5C 15.1667,85.5 9.83333,85.5 4.5,85.5C 4.5,86.8333 4.5,88.1667 4.5,89.5C 7.89838,89.1796 11.2317,89.513 14.5,90.5C 14.3764,91.1067 14.0431,91.44 13.5,91.5C 10.3752,90.5206 7.04185,90.1872 3.5,90.5C 3.5,88.5 3.5,86.5 3.5,84.5C 9.5,84.5 15.5,84.5 21.5,84.5C 21.7845,86.4147 21.4511,88.0813 20.5,89.5 Z"/></g>
<g><path style="opacity:1" fill="#686868" d="M 58.5,85.5 C 47.1667,85.5 35.8333,85.5 24.5,85.5C 24.5,86.8333 24.5,88.1667 24.5,89.5C 23.5489,88.0813 23.2155,86.4147 23.5,84.5C 35.3453,84.1717 47.012,84.5051 58.5,85.5 Z"/></g>
<g><path style="opacity:1" fill="#f3f3f3" d="M 20.5,89.5 C 17.0776,94.6776 13.411,99.6776 9.5,104.5C 12.9619,105.482 16.6286,105.815 20.5,105.5C 20.5,106.833 20.5,108.167 20.5,109.5C 14.8333,109.5 9.16667,109.5 3.5,109.5C 3.29777,107.011 3.79777,104.677 5,102.5C 8.04861,98.9574 10.8819,95.2907 13.5,91.5C 14.0431,91.44 14.3764,91.1067 14.5,90.5C 11.2317,89.513 7.89838,89.1796 4.5,89.5C 4.5,88.1667 4.5,86.8333 4.5,85.5C 9.83333,85.5 15.1667,85.5 20.5,85.5C 20.5,86.8333 20.5,88.1667 20.5,89.5 Z"/></g>
<g><path style="opacity:1" fill="#ececec" d="M 58.5,85.5 C 63.6469,86.4653 65.8135,89.4653 65,94.5C 64.0857,96.6641 62.919,98.6641 61.5,100.5C 62.7885,103.58 64.4552,106.414 66.5,109C 64.4213,109.808 62.4213,109.641 60.5,108.5C 59.3924,105.941 58.0591,103.608 56.5,101.5C 54.7354,100.539 52.7354,100.205 50.5,100.5C 50.5,103.5 50.5,106.5 50.5,109.5C 49.1667,109.5 47.8333,109.5 46.5,109.5C 46.5,105.167 46.5,100.833 46.5,96.5C 50.5138,96.6655 54.5138,96.4988 58.5,96C 61.033,93.916 61.033,91.916 58.5,90C 47.1716,89.5001 35.8382,89.3335 24.5,89.5C 24.5,88.1667 24.5,86.8333 24.5,85.5C 35.8333,85.5 47.1667,85.5 58.5,85.5 Z"/></g>
<g><path style="opacity:1" fill="#ebebeb" d="M 68.5,100.5 C 68.5,99.5 68.5,98.5 68.5,97.5C 69.8333,97.5 71.1667,97.5 72.5,97.5C 74.0762,104.955 78.4096,107.122 85.5,104C 89.4227,99.594 89.4227,95.2606 85.5,91C 83.9751,89.9914 82.3084,89.4914 80.5,89.5C 80.5,87.8333 80.5,86.1667 80.5,84.5C 93.0296,86.8924 96.5296,93.8924 91,105.5C 86.2147,109.373 80.7147,110.54 74.5,109C 71.1539,107.149 69.1539,104.316 68.5,100.5 Z"/></g>
<g><path style="opacity:1" fill="#828282" d="M 101.5,85.5 C 100.167,85.5 98.8333,85.5 97.5,85.5C 97.5,93.5 97.5,101.5 97.5,109.5C 96.5073,101.35 96.1739,93.0168 96.5,84.5C 98.4147,84.2155 100.081,84.5489 101.5,85.5 Z"/></g>
<g><path style="opacity:1" fill="#f2f2f2" d="M 101.5,85.5 C 101.5,91.8333 101.5,98.1667 101.5,104.5C 105.833,104.5 110.167,104.5 114.5,104.5C 114.5,106.167 114.5,107.833 114.5,109.5C 108.833,109.5 103.167,109.5 97.5,109.5C 97.5,101.5 97.5,93.5 97.5,85.5C 98.8333,85.5 100.167,85.5 101.5,85.5 Z"/></g>
<g><path style="opacity:1" fill="#f5f5f5" d="M 153.5,99.5 C 153.783,100.289 154.283,100.956 155,101.5C 155.499,96.1771 155.666,90.8437 155.5,85.5C 156.833,85.5 158.167,85.5 159.5,85.5C 159.5,93.5 159.5,101.5 159.5,109.5C 157.712,109.785 156.045,109.452 154.5,108.5C 150.044,102.421 145.71,96.2542 141.5,90C 133.507,89.5003 125.507,89.3336 117.5,89.5C 117.5,88.1667 117.5,86.8333 117.5,85.5C 126.525,85.1685 135.525,85.5018 144.5,86.5C 147.757,90.688 150.757,95.0214 153.5,99.5 Z"/></g>
<g><path style="opacity:1" fill="#474747" d="M 155.5,85.5 C 155.666,90.8437 155.499,96.1771 155,101.5C 154.283,100.956 153.783,100.289 153.5,99.5C 154.167,94.8333 154.833,90.1667 155.5,85.5 Z"/></g>
<g><path style="opacity:1" fill="#eeeeee" d="M 164.5,85.5 C 181.424,82.5835 187.591,89.2502 183,105.5C 182.167,106.333 181.333,107.167 180.5,108C 175.264,109.339 169.93,109.839 164.5,109.5C 164.5,107.833 164.5,106.167 164.5,104.5C 168.514,104.666 172.514,104.499 176.5,104C 178.923,102.36 179.923,100.027 179.5,97C 179.695,94.6477 179.028,92.6477 177.5,91C 173.3,89.6326 168.967,89.1326 164.5,89.5C 164.5,88.1667 164.5,86.8333 164.5,85.5 Z"/></g>
<g><path style="opacity:1" fill="#f4f4f4" d="M 174.5,93.5 C 174.5,96.1667 174.5,98.8333 174.5,101.5C 173.167,101.5 171.833,101.5 170.5,101.5C 170.5,98.8333 170.5,96.1667 170.5,93.5C 171.833,93.5 173.167,93.5 174.5,93.5 Z"/></g>
<g><path style="opacity:1" fill="#686767" d="M 41.5,95.5 C 35.8333,95.5 30.1667,95.5 24.5,95.5C 24.5,96.8333 24.5,98.1667 24.5,99.5C 23.5489,98.0813 23.2155,96.4147 23.5,94.5C 29.69,94.1771 35.69,94.5104 41.5,95.5 Z"/></g>
<g><path style="opacity:1" fill="#9f9f9f" d="M 141.5,94.5 C 140.513,99.3054 140.179,104.305 140.5,109.5C 139.185,104.32 139.185,98.9864 140.5,93.5C 141.107,93.6236 141.44,93.9569 141.5,94.5 Z"/></g>
<g><path style="opacity:1" fill="#f2f2f2" d="M 41.5,95.5 C 42.4345,96.5676 42.7678,97.901 42.5,99.5C 36.5,99.5 30.5,99.5 24.5,99.5C 24.5,98.1667 24.5,96.8333 24.5,95.5C 30.1667,95.5 35.8333,95.5 41.5,95.5 Z"/></g>
<g><path style="opacity:1" fill="#f5f5f5" d="M 117.5,95.5 C 123.5,95.5 129.5,95.5 135.5,95.5C 135.5,96.8333 135.5,98.1667 135.5,99.5C 129.5,99.5 123.5,99.5 117.5,99.5C 117.5,98.1667 117.5,96.8333 117.5,95.5 Z"/></g>
<g><path style="opacity:1" fill="#f0f0f0" d="M 141.5,94.5 C 144.227,99.035 145.227,104.035 144.5,109.5C 143.167,109.5 141.833,109.5 140.5,109.5C 140.179,104.305 140.513,99.3054 141.5,94.5 Z"/></g>
<g><path style="opacity:1" fill="#4c4c4c" d="M 72.5,97.5 C 71.1667,97.5 69.8333,97.5 68.5,97.5C 68.5,98.5 68.5,99.5 68.5,100.5C 67.5655,99.4324 67.2322,98.099 67.5,96.5C 69.4147,96.2155 71.0813,96.5489 72.5,97.5 Z"/></g>
<g><path style="opacity:1" fill="#9a9a9a" d="M 174.5,93.5 C 173.167,93.5 171.833,93.5 170.5,93.5C 170.5,96.1667 170.5,98.8333 170.5,101.5C 169.523,98.7131 169.19,95.7131 169.5,92.5C 171.415,92.2155 173.081,92.5489 174.5,93.5 Z"/></g>
<g><path style="opacity:1" fill="#c7c7c7" d="M 17.5,98.5 C 18.7759,99.3864 18.7759,100.386 17.5,101.5C 16.4376,100.575 16.4376,99.5754 17.5,98.5 Z"/></g>
<g><path style="opacity:1" fill="#8e8e8e" d="M 56.5,101.5 C 54.8333,101.5 53.1667,101.5 51.5,101.5C 51.8064,104.385 51.4731,107.052 50.5,109.5C 50.5,106.5 50.5,103.5 50.5,100.5C 52.7354,100.205 54.7354,100.539 56.5,101.5 Z"/></g>
<g><path style="opacity:1" fill="#969696" d="M 9.5,104.5 C 13.5,104.5 17.5,104.5 21.5,104.5C 21.7845,106.415 21.4511,108.081 20.5,109.5C 20.5,108.167 20.5,106.833 20.5,105.5C 16.6286,105.815 12.9619,105.482 9.5,104.5 Z"/></g>
<g><path style="opacity:1" fill="#8e8e8e" d="M 41.5,109.5 C 41.5,108.167 41.5,106.833 41.5,105.5C 35.8333,105.5 30.1667,105.5 24.5,105.5C 24.5,106.833 24.5,108.167 24.5,109.5C 23.5489,108.081 23.2155,106.415 23.5,104.5C 29.8333,104.5 36.1667,104.5 42.5,104.5C 42.7845,106.415 42.4511,108.081 41.5,109.5 Z"/></g>
<g><path style="opacity:1" fill="#f8f8f8" d="M 41.5,109.5 C 35.8333,109.5 30.1667,109.5 24.5,109.5C 24.5,108.167 24.5,106.833 24.5,105.5C 30.1667,105.5 35.8333,105.5 41.5,105.5C 41.5,106.833 41.5,108.167 41.5,109.5 Z"/></g>
<g><path style="opacity:1" fill="#e5e5e5" d="M 117.5,104.5 C 123.5,104.5 129.5,104.5 135.5,104.5C 135.5,106.167 135.5,107.833 135.5,109.5C 129.5,109.5 123.5,109.5 117.5,109.5C 117.5,107.833 117.5,106.167 117.5,104.5 Z"/></g>
<g><path style="opacity:1" fill="#e4e4e4" d="M 69.5,109.5 C 75.2612,112.744 80.9279,116.244 86.5,120C 96.1987,122.161 104.532,119.828 111.5,113C 113.579,112.192 115.579,112.359 117.5,113.5C 109.692,123.877 99.3582,127.711 86.5,125C 78.0534,122.714 72.3868,117.547 69.5,109.5 Z"/></g>
<g><path style="opacity:1" fill="#e8e8e8" d="M 15.5,112.5 C 17.1667,112.5 18.8333,112.5 20.5,112.5C 27.9105,144.411 47.5772,164.244 79.5,172C 110.27,176.084 135.436,166.251 155,142.5C 161.226,133.713 165.559,124.046 168,113.5C 169.356,112.62 170.856,112.286 172.5,112.5C 167.869,136.293 155.203,154.46 134.5,167C 95.0843,186.186 60.5843,179.686 31,147.5C 23.1051,137.043 17.9384,125.377 15.5,112.5 Z"/></g>
<g><path style="opacity:1" fill="#e7e7e7" d="M 42.5,112.5 C 44.1439,112.286 45.6439,112.62 47,113.5C 57.9501,138.728 77.1168,149.562 104.5,146C 122.336,141.496 134.502,130.663 141,113.5C 142.726,112.424 144.559,112.257 146.5,113C 135.545,141.254 114.878,153.92 84.5,151C 62.6466,146.643 48.6466,133.81 42.5,112.5 Z"/></g>
</svg>
