<svg xmlns="http://www.w3.org/2000/svg" version="1.1" width="662px" height="648px" style="shape-rendering:geometricPrecision; text-rendering:geometricPrecision; image-rendering:optimizeQuality; fill-rule:evenodd; clip-rule:evenodd" xmlns:xlink="http://www.w3.org/1999/xlink">
<g><path style="opacity:1" fill="#828282" d="M 303.5,5.5 C 300.026,6.52495 296.36,7.19162 292.5,7.5C 292.5,7.16667 292.5,6.83333 292.5,6.5C 296.119,5.75638 299.785,5.42305 303.5,5.5 Z"/></g>
<g><path style="opacity:0.997" fill="#020202" d="M 373.5,7.5 C 388.63,8.79527 403.297,11.7953 417.5,16.5C 412.184,15.534 406.851,15.034 401.5,15C 406.875,16.0616 412.208,17.2282 417.5,18.5C 424.573,20.3573 431.573,22.5239 438.5,25C 439.833,25.6667 439.833,26.3333 438.5,27C 421.17,36.0978 402.837,38.9312 383.5,35.5C 383.72,41.6217 382.22,47.2884 379,52.5C 366.325,66.4017 350.492,73.5683 331.5,74C 315.503,76.199 300.17,74.0323 285.5,67.5C 294.694,96.0153 289.194,121.682 269,144.5C 255.939,157.903 241.439,169.403 225.5,179C 197.926,192.954 170.259,206.621 142.5,220C 139.333,223.167 136.167,226.333 133,229.5C 130.815,232.887 129.315,236.554 128.5,240.5C 126.698,252.433 130.698,262.267 140.5,270C 141.167,270.667 141.833,270.667 142.5,270C 134.063,263.957 129.73,255.791 129.5,245.5C 129.758,241.56 130.924,237.893 133,234.5C 140.745,225.209 150.578,219.375 162.5,217C 187.793,214.022 212.46,216.855 236.5,225.5C 237.938,225.281 239.271,224.781 240.5,224C 311.403,162.765 378.07,97.0981 440.5,27C 448.376,28.7568 456.043,31.4235 463.5,35C 477.345,42.0566 491.012,49.2232 504.5,56.5C 504.973,57.9063 505.973,58.573 507.5,58.5C 507.973,59.9063 508.973,60.573 510.5,60.5C 510.973,61.9063 511.973,62.573 513.5,62.5C 513.973,63.9063 514.973,64.573 516.5,64.5C 517.167,64.5 517.5,64.8333 517.5,65.5C 517.973,66.9063 518.973,67.573 520.5,67.5C 522.754,68.1237 524.421,69.457 525.5,71.5C 527.129,73.1959 526.796,74.1959 524.5,74.5C 511.127,71.7034 497.794,71.8701 484.5,75C 471.796,78.3246 462.129,85.4913 455.5,96.5C 468.717,82.7448 484.717,78.2448 503.5,83C 523.173,87.585 540.34,96.7517 555,110.5C 557.503,113.502 559.503,116.835 561,120.5C 561.762,116.668 561.262,113.002 559.5,109.5C 560.002,108.479 560.668,108.312 561.5,109C 568.337,115.005 575.004,121.171 581.5,127.5C 581.738,129.404 582.738,130.738 584.5,131.5C 584.738,133.404 585.738,134.738 587.5,135.5C 590.605,138.275 592.938,141.608 594.5,145.5C 580.673,138.832 566.34,137.332 551.5,141C 541.003,144.494 534.336,151.494 531.5,162C 531.726,165.012 532.559,167.845 534,170.5C 534.654,171.696 535.154,171.696 535.5,170.5C 531.77,162.096 533.77,155.263 541.5,150C 555.909,141.766 570.576,141.432 585.5,149C 592.257,152.603 598.591,156.77 604.5,161.5C 631.372,205.955 646.039,254.288 648.5,306.5C 647.13,306.856 646.13,307.69 645.5,309C 647.224,322.096 647.891,335.262 647.5,348.5C 639.341,438.327 601.008,512.16 532.5,570C 443.475,638.67 344.475,658.004 235.5,628C 130.684,592.517 60.5173,522.351 25,417.5C 12.7809,376.642 8.61421,334.975 12.5,292.5C 13.9305,292.579 15.2638,292.246 16.5,291.5C 17.683,264.461 25.5163,239.795 40,217.5C 35.5904,220.093 31.0904,222.426 26.5,224.5C 27.5995,219.856 29.2661,215.522 31.5,211.5C 32.2418,213.35 33.2418,214.016 34.5,213.5C 42.9576,204.259 52.6243,196.425 63.5,190C 64.4368,189.308 65.1034,189.475 65.5,190.5C 37.4087,254.24 30.9087,320.24 46,388.5C 51.688,413.23 59.188,437.397 68.5,461C 68.3333,461.5 68.1667,462 68,462.5C 50.8755,445.935 38.5421,426.268 31,403.5C 38.2111,433.926 50.8778,461.926 69,487.5C 86.2686,511.1 106.435,531.6 129.5,549C 83.4518,502.892 61.2851,447.059 63,381.5C 64.0062,378.11 66.0062,377.11 69,378.5C 69.9734,380.392 70.6401,382.392 71,384.5C 59.1317,301.319 75.1317,223.986 119,152.5C 151.625,98.2066 196.125,56.7066 252.5,28C 290.88,9.9366 331.213,3.10327 373.5,7.5 Z"/></g>
<g><path style="opacity:1" fill="#696969" d="M 417.5,16.5 C 418.791,16.2627 419.791,16.596 420.5,17.5C 419.209,17.2627 418.209,17.596 417.5,18.5C 412.208,17.2282 406.875,16.0616 401.5,15C 406.851,15.034 412.184,15.534 417.5,16.5 Z"/></g>
<g><path style="opacity:1" fill="#fafafa" d="M 417.5,18.5 C 418.209,17.596 419.209,17.2627 420.5,17.5C 450.858,25.6823 478.858,38.6823 504.5,56.5C 491.012,49.2232 477.345,42.0566 463.5,35C 456.043,31.4235 448.376,28.7568 440.5,27C 378.07,97.0981 311.403,162.765 240.5,224C 239.271,224.781 237.938,225.281 236.5,225.5C 212.46,216.855 187.793,214.022 162.5,217C 150.578,219.375 140.745,225.209 133,234.5C 130.924,237.893 129.758,241.56 129.5,245.5C 128.549,244.081 128.216,242.415 128.5,240.5C 129.315,236.554 130.815,232.887 133,229.5C 136.167,226.333 139.333,223.167 142.5,220C 170.259,206.621 197.926,192.954 225.5,179C 241.439,169.403 255.939,157.903 269,144.5C 289.194,121.682 294.694,96.0153 285.5,67.5C 300.17,74.0323 315.503,76.199 331.5,74C 350.492,73.5683 366.325,66.4017 379,52.5C 382.22,47.2884 383.72,41.6217 383.5,35.5C 402.837,38.9312 421.17,36.0978 438.5,27C 439.833,26.3333 439.833,25.6667 438.5,25C 431.573,22.5239 424.573,20.3573 417.5,18.5 Z"/></g>
<g><path style="opacity:1" fill="#f7f7f7" d="M 373.5,7.5 C 331.213,3.10327 290.88,9.9366 252.5,28C 196.125,56.7066 151.625,98.2066 119,152.5C 75.1317,223.986 59.1317,301.319 71,384.5C 70.6401,382.392 69.9734,380.392 69,378.5C 66.0062,377.11 64.0062,378.11 63,381.5C 61.2851,447.059 83.4518,502.892 129.5,549C 106.435,531.6 86.2686,511.1 69,487.5C 50.8778,461.926 38.2111,433.926 31,403.5C 38.5421,426.268 50.8755,445.935 68,462.5C 68.1667,462 68.3333,461.5 68.5,461C 59.188,437.397 51.688,413.23 46,388.5C 30.9087,320.24 37.4087,254.24 65.5,190.5C 66.9315,187.402 68.5982,184.236 70.5,181C 69.8985,177.93 71.0651,175.43 74,173.5C 74.6667,171.5 75.3333,169.5 76,167.5C 78.9961,162.184 82.4961,157.184 86.5,152.5C 87.7596,150.647 87.7596,148.814 86.5,147C 87.7702,146.1 88.7702,144.934 89.5,143.5C 90.1924,144.025 90.6924,144.692 91,145.5C 92.3657,143.638 93.8657,141.972 95.5,140.5C 100.243,133.583 105.576,127.083 111.5,121C 106.934,120.462 102.601,121.296 98.5,123.5C 95.8658,122.513 93.5325,121.013 91.5,119C 100.027,113.152 109.36,110.819 119.5,112C 123.167,108.333 126.833,104.667 130.5,101C 123.958,102.505 117.291,103.171 110.5,103C 109.14,101.062 109.473,99.3957 111.5,98C 113.723,95.7773 116.389,94.444 119.5,94C 125.275,93.4799 130.942,93.8132 136.5,95C 161.442,70.3813 189.442,50.048 220.5,34C 189.574,45.6327 161.908,62.6327 137.5,85C 133.5,85.6667 129.5,85.6667 125.5,85C 173.389,43.064 229.056,17.2307 292.5,7.5C 296.36,7.19162 300.026,6.52495 303.5,5.5C 320.135,4.37681 336.802,4.21014 353.5,5C 360.368,5.39212 367.034,6.22545 373.5,7.5 Z"/></g>
<g><path style="opacity:0.031" fill="#ededed" d="M 504.5,56.5 C 506.027,56.427 507.027,57.0937 507.5,58.5C 505.973,58.573 504.973,57.9063 504.5,56.5 Z"/></g>
<g><path style="opacity:1" fill="#fcfcfc" d="M 423.5,54.5 C 424.167,191.833 424.833,329.167 425.5,466.5C 424.814,485.623 427.314,504.289 433,522.5C 436.94,531.271 443.106,537.938 451.5,542.5C 402.008,544.165 352.342,545.165 302.5,545.5C 300.143,545.663 297.81,545.497 295.5,545C 314.073,539.091 328.573,527.924 339,511.5C 347.333,496.833 352.667,481.166 355,464.5C 356.313,351.852 356.98,239.185 357,126.5C 380.448,103.557 402.615,79.5573 423.5,54.5 Z"/></g>
<g><path style="opacity:0.286" fill="#eeeeee" d="M 507.5,58.5 C 509.027,58.427 510.027,59.0937 510.5,60.5C 508.973,60.573 507.973,59.9063 507.5,58.5 Z"/></g>
<g><path style="opacity:0.02" fill="#eeeeee" d="M 510.5,60.5 C 512.027,60.427 513.027,61.0937 513.5,62.5C 511.973,62.573 510.973,61.9063 510.5,60.5 Z"/></g>
<g><path style="opacity:0.936" fill="#0a0a0a" d="M 292.5,6.5 C 292.5,6.83333 292.5,7.16667 292.5,7.5C 229.056,17.2307 173.389,43.064 125.5,85C 129.5,85.6667 133.5,85.6667 137.5,85C 161.908,62.6327 189.574,45.6327 220.5,34C 189.442,50.048 161.442,70.3813 136.5,95C 130.942,93.8132 125.275,93.4799 119.5,94C 116.389,94.444 113.723,95.7773 111.5,98C 109.473,99.3957 109.14,101.062 110.5,103C 117.291,103.171 123.958,102.505 130.5,101C 126.833,104.667 123.167,108.333 119.5,112C 109.36,110.819 100.027,113.152 91.5,119C 93.5325,121.013 95.8658,122.513 98.5,123.5C 102.601,121.296 106.934,120.462 111.5,121C 105.576,127.083 100.243,133.583 95.5,140.5C 90.5625,138.363 85.8959,135.696 81.5,132.5C 61.5056,156.8 45.8389,183.8 34.5,213.5C 33.2418,214.016 32.2418,213.35 31.5,211.5C 66.1599,122.006 128.16,59.5063 217.5,24C 241.816,15.1708 266.816,9.33745 292.5,6.5 Z"/></g>
<g><path style="opacity:0.02" fill="#f1f1f1" d="M 513.5,62.5 C 515.027,62.427 516.027,63.0937 516.5,64.5C 514.973,64.573 513.973,63.9063 513.5,62.5 Z"/></g>
<g><path style="opacity:0.031" fill="#d8d8d8" d="M 517.5,65.5 C 519.027,65.427 520.027,66.0937 520.5,67.5C 518.973,67.573 517.973,66.9063 517.5,65.5 Z"/></g>
<g><path style="opacity:0.993" fill="#f2f2f2" d="M 524.5,74.5 C 526.137,75.3796 527.97,76.0463 530,76.5C 530.765,76.4301 531.265,76.0967 531.5,75.5C 535.541,79.176 539.541,82.8427 543.5,86.5C 536.316,82.6206 528.649,80.7873 520.5,81C 532.187,89.3439 544.854,95.8439 558.5,100.5C 567.285,108.613 574.952,117.613 581.5,127.5C 575.004,121.171 568.337,115.005 561.5,109C 560.668,108.312 560.002,108.479 559.5,109.5C 561.262,113.002 561.762,116.668 561,120.5C 559.503,116.835 557.503,113.502 555,110.5C 540.34,96.7517 523.173,87.585 503.5,83C 484.717,78.2448 468.717,82.7448 455.5,96.5C 462.129,85.4913 471.796,78.3246 484.5,75C 497.794,71.8701 511.127,71.7034 524.5,74.5 Z"/></g>
<g><path style="opacity:0.982" fill="#474747" d="M 525.5,71.5 C 527.754,72.4151 529.754,73.7484 531.5,75.5C 531.265,76.0967 530.765,76.4301 530,76.5C 527.97,76.0463 526.137,75.3796 524.5,74.5C 526.796,74.1959 527.129,73.1959 525.5,71.5 Z"/></g>
<g><path style="opacity:1" fill="#121212" d="M 543.5,86.5 C 549.129,90.4608 554.129,95.1275 558.5,100.5C 544.854,95.8439 532.187,89.3439 520.5,81C 528.649,80.7873 536.316,82.6206 543.5,86.5 Z"/></g>
<g><path style="opacity:1" fill="#7b7b7b" d="M 455.5,96.5 C 455.539,97.7562 455.039,98.7562 454,99.5C 453.415,98.0024 453.915,97.0024 455.5,96.5 Z"/></g>
<g><path style="opacity:0.961" fill="#c2c2c2" d="M 581.5,127.5 C 583.262,128.262 584.262,129.596 584.5,131.5C 582.738,130.738 581.738,129.404 581.5,127.5 Z"/></g>
<g><path style="opacity:0.961" fill="#838383" d="M 584.5,131.5 C 586.262,132.262 587.262,133.596 587.5,135.5C 585.738,134.738 584.738,133.404 584.5,131.5 Z"/></g>
<g><path style="opacity:1" fill="#eeeeee" d="M 95.5,140.5 C 93.8657,141.972 92.3657,143.638 91,145.5C 90.6924,144.692 90.1924,144.025 89.5,143.5C 88.7702,144.934 87.7702,146.1 86.5,147C 87.7596,148.814 87.7596,150.647 86.5,152.5C 82.4961,157.184 78.9961,162.184 76,167.5C 75.3333,169.5 74.6667,171.5 74,173.5C 71.0651,175.43 69.8985,177.93 70.5,181C 68.5982,184.236 66.9315,187.402 65.5,190.5C 65.1034,189.475 64.4368,189.308 63.5,190C 52.6243,196.425 42.9576,204.259 34.5,213.5C 45.8389,183.8 61.5056,156.8 81.5,132.5C 85.8959,135.696 90.5625,138.363 95.5,140.5 Z"/></g>
<g><path style="opacity:0.997" fill="#eeeeee" d="M 594.5,145.5 C 598.831,150.152 602.165,155.486 604.5,161.5C 598.591,156.77 592.257,152.603 585.5,149C 570.576,141.432 555.909,141.766 541.5,150C 533.77,155.263 531.77,162.096 535.5,170.5C 535.154,171.696 534.654,171.696 534,170.5C 532.559,167.845 531.726,165.012 531.5,162C 534.336,151.494 541.003,144.494 551.5,141C 566.34,137.332 580.673,138.832 594.5,145.5 Z"/></g>
<g><path style="opacity:1" fill="#797979" d="M 537.5,174.5 C 537.56,173.957 537.893,173.624 538.5,173.5C 541.005,175.253 543.671,176.753 546.5,178C 543.111,177.977 540.111,176.81 537.5,174.5 Z"/></g>
<g><path style="opacity:0.836" fill="#ebebeb" d="M 12.5,292.5 C 14.4828,269.252 19.1495,246.585 26.5,224.5C 31.0904,222.426 35.5904,220.093 40,217.5C 25.5163,239.795 17.683,264.461 16.5,291.5C 15.2638,292.246 13.9305,292.579 12.5,292.5 Z"/></g>
<g><path style="opacity:1" fill="#686868" d="M 534.5,241.5 C 531.91,240.872 529.577,239.705 527.5,238C 530.336,238.085 532.669,239.251 534.5,241.5 Z"/></g>
<g><path style="opacity:1" fill="#868686" d="M 534.5,241.5 C 536.027,241.427 537.027,242.094 537.5,243.5C 535.973,243.573 534.973,242.906 534.5,241.5 Z"/></g>
<g><path style="opacity:1" fill="#8a8a8a" d="M 537.5,243.5 C 539.027,243.427 540.027,244.094 540.5,245.5C 538.973,245.573 537.973,244.906 537.5,243.5 Z"/></g>
<g><path style="opacity:1" fill="#7c7c7c" d="M 604.5,246.5 C 604.5,245.833 604.167,245.5 603.5,245.5C 606.615,243.965 609.949,243.131 613.5,243C 610.673,244.664 607.673,245.83 604.5,246.5 Z"/></g>
<g><path style="opacity:1" fill="#e5e5e5" d="M 603.5,245.5 C 604.167,245.5 604.5,245.833 604.5,246.5C 591.243,249.912 580.076,246.579 571,236.5C 566.023,229.138 566.357,222.138 572,215.5C 568.177,224.419 570.01,232.252 577.5,239C 585.292,244.539 593.958,246.706 603.5,245.5 Z"/></g>
<g><path style="opacity:1" fill="#b0b0b0" d="M 540.5,245.5 C 542.404,245.738 543.738,246.738 544.5,248.5C 542.596,248.262 541.262,247.262 540.5,245.5 Z"/></g>
<g><path style="opacity:1" fill="#b7b7b7" d="M 128.5,240.5 C 128.216,242.415 128.549,244.081 129.5,245.5C 129.73,255.791 134.063,263.957 142.5,270C 141.833,270.667 141.167,270.667 140.5,270C 130.698,262.267 126.698,252.433 128.5,240.5 Z"/></g>
<g><path style="opacity:1" fill="#757575" d="M 144.5,272.5 C 144.56,271.957 144.893,271.624 145.5,271.5C 147.167,272.333 148.833,273.167 150.5,274C 148.305,274.409 146.305,273.909 144.5,272.5 Z"/></g>
<g><path style="opacity:1" fill="#f5f5f5" d="M 590.5,448.5 C 588.953,446.193 588.287,443.527 588.5,440.5C 588.186,436.252 589.186,432.419 591.5,429C 589.771,427.211 589.104,425.044 589.5,422.5C 593.186,361.037 573.519,308.537 530.5,265C 518.159,253.345 503.826,245.011 487.5,240C 474.775,236.313 463.275,238.48 453,246.5C 444.481,257.079 444.481,267.746 453,278.5C 459.221,283.669 466.054,284.836 473.5,282C 460.349,287.856 450.849,284.023 445,270.5C 439.696,249.933 447.196,236.766 467.5,231C 482.664,229.249 496.998,231.916 510.5,239C 550.721,263.256 577.554,298.09 591,343.5C 601.106,378.684 600.94,413.684 590.5,448.5 Z"/></g>
<g><path style="opacity:1" fill="#d4d4d4" d="M 314.5,292.5 C 315.906,292.973 316.573,293.973 316.5,295.5C 315.094,295.027 314.427,294.027 314.5,292.5 Z"/></g>
<g><path style="opacity:1" fill="#bcbcbc" d="M 316.5,295.5 C 318.085,296.002 318.585,297.002 318,298.5C 316.961,297.756 316.461,296.756 316.5,295.5 Z"/></g>
<g><path style="opacity:1" fill="#868686" d="M 319.5,300.5 C 322.037,302.573 323.204,305.24 323,308.5C 321.546,305.929 320.38,303.262 319.5,300.5 Z"/></g>
<g><path style="opacity:0.87" fill="#e6e6e6" d="M 648.5,306.5 C 648.829,320.677 648.496,334.677 647.5,348.5C 647.891,335.262 647.224,322.096 645.5,309C 646.13,307.69 647.13,306.856 648.5,306.5 Z"/></g>
<g><path style="opacity:1" fill="#959595" d="M 513.5,322.5 C 512.833,322.5 512.5,322.833 512.5,323.5C 507.529,322.623 502.529,321.789 497.5,321C 503.063,320.379 508.396,320.879 513.5,322.5 Z"/></g>
<g><path style="opacity:1" fill="#acacac" d="M 485.5,323.5 C 494.287,322.807 502.621,324.14 510.5,327.5C 509.833,327.5 509.5,327.833 509.5,328.5C 502.436,325.878 495.103,324.544 487.5,324.5C 486.508,324.672 485.842,324.338 485.5,323.5 Z"/></g>
<g><path style="opacity:1" fill="#f5f5f5" d="M 314.5,292.5 C 287.79,264.59 256.457,258.09 220.5,273C 177.59,294.593 151.423,329.093 142,376.5C 135.663,416.471 140.996,454.804 158,491.5C 161.755,499.01 165.422,506.343 169,513.5C 133.892,479.367 117.058,437.7 118.5,388.5C 119.629,386.372 119.796,384.039 119,381.5C 118.392,383.154 117.892,384.821 117.5,386.5C 111.999,421.822 116.499,455.822 131,488.5C 152.767,535.819 185.6,573.653 229.5,602C 240.548,608.524 251.882,614.524 263.5,620C 210.684,603.535 168.184,572.702 136,527.5C 107.816,488.775 95.1494,445.442 98,397.5C 102.653,361.734 119.487,333.401 148.5,312.5C 149.329,317.802 149.829,323.136 150,328.5C 170.67,292.833 201.17,270.666 241.5,262C 268.835,258.665 292.001,266.832 311,286.5C 312.421,288.405 313.588,290.405 314.5,292.5 Z"/></g>
<g><path style="opacity:1" fill="#888888" d="M 231.5,292.5 C 235.629,289.268 240.296,287.434 245.5,287C 240.913,289.13 236.247,290.963 231.5,292.5 Z"/></g>
<g><path style="opacity:1" fill="#444444" d="M 485.5,323.5 C 485.842,324.338 486.508,324.672 487.5,324.5C 481.58,325.408 475.914,327.408 470.5,330.5C 469.304,330.154 469.304,329.654 470.5,329C 475.189,326.271 480.189,324.437 485.5,323.5 Z"/></g>
<g><path style="opacity:1" fill="#c9c9c9" d="M 423.5,54.5 C 423.56,53.9569 423.893,53.6236 424.5,53.5C 425.5,191.165 425.833,328.832 425.5,466.5C 424.833,329.167 424.167,191.833 423.5,54.5 Z"/></g>
<g><path style="opacity:1" fill="#c9c9c9" d="M 231.5,292.5 C 204.705,309.642 186.039,333.309 175.5,363.5C 175.5,362.5 175.5,361.5 175.5,360.5C 176.429,356.716 177.762,353.049 179.5,349.5C 179.043,348.702 178.376,348.369 177.5,348.5C 189.077,323.59 207.077,304.924 231.5,292.5 Z"/></g>
<g><path style="opacity:1" fill="#e7e6e7" d="M 512.5,323.5 C 512.5,322.833 512.833,322.5 513.5,322.5C 533.658,327.826 549.491,339.159 561,356.5C 574.697,379.955 580.863,405.288 579.5,432.5C 578.833,432.167 578.167,431.833 577.5,431.5C 577.954,401.296 569.454,373.963 552,349.5C 541.489,336.67 528.322,328.003 512.5,323.5 Z"/></g>
<g><path style="opacity:1" fill="#e6e6e6" d="M 304.5,372.5 C 304.167,372.5 303.833,372.5 303.5,372.5C 289.382,350.395 269.382,342.228 243.5,348C 218.564,356.605 203.064,373.771 197,399.5C 193.045,431.572 203.879,457.239 229.5,476.5C 229.5,477.167 229.167,477.5 228.5,477.5C 194.43,451.111 185.263,417.778 201,377.5C 218.482,347.508 243.982,337.008 277.5,346C 290.121,351.28 299.121,360.114 304.5,372.5 Z"/></g>
<g><path style="opacity:1" fill="#a7a7a7" d="M 189.5,358.5 C 189.539,359.756 189.039,360.756 188,361.5C 187.415,360.002 187.915,359.002 189.5,358.5 Z"/></g>
<g><path style="opacity:1" fill="#444444" d="M 175.5,360.5 C 175.5,361.5 175.5,362.5 175.5,363.5C 171.574,373.872 168.907,384.539 167.5,395.5C 167.5,394.833 167.167,394.5 166.5,394.5C 167.741,382.596 170.741,371.262 175.5,360.5 Z"/></g>
<g><path style="opacity:1" fill="#f2f2f2" d="M 248.5,395.5 C 249.492,395.328 250.158,395.662 250.5,396.5C 236.294,399.546 228.627,408.38 227.5,423C 230.459,440.963 240.792,452.296 258.5,457C 288.524,460.406 310.691,448.906 325,422.5C 336.728,393.952 333.061,367.618 314,343.5C 294.672,324.173 271.506,317.34 244.5,323C 221.862,328.31 203.529,340.143 189.5,358.5C 209.207,326.843 237.874,312.343 275.5,315C 316.099,323.77 337.432,348.936 339.5,390.5C 339.017,422.309 324.684,445.476 296.5,460C 284.527,464.293 272.193,465.626 259.5,464C 239.102,458.442 227.435,445.275 224.5,424.5C 225.262,408.746 233.262,399.079 248.5,395.5 Z"/></g>
<g><path style="opacity:1" fill="#6b6a6b" d="M 118.5,388.5 C 118.672,387.508 118.338,386.842 117.5,386.5C 117.892,384.821 118.392,383.154 119,381.5C 119.796,384.039 119.629,386.372 118.5,388.5 Z"/></g>
<g><path style="opacity:1" fill="#ececec" d="M 544.5,248.5 C 564.333,262.167 580.166,279.5 592,300.5C 619.828,351.886 624.161,405.22 605,460.5C 585.493,507.873 553.326,543.873 508.5,568.5C 550.028,541.468 580.528,505.135 600,459.5C 621.384,395.558 613.051,335.891 575,280.5C 565.944,268.675 555.778,258.009 544.5,248.5 Z"/></g>
<g><path style="opacity:1" fill="#afafaf" d="M 577.5,431.5 C 578.167,431.833 578.833,432.167 579.5,432.5C 579.153,441.274 577.987,449.941 576,458.5C 576.962,449.566 577.462,440.566 577.5,431.5 Z"/></g>
<g><path style="opacity:1" fill="#f6f6f6" d="M 177.5,348.5 C 178.376,348.369 179.043,348.702 179.5,349.5C 177.762,353.049 176.429,356.716 175.5,360.5C 170.741,371.262 167.741,382.596 166.5,394.5C 162.728,457.034 184.061,509.2 230.5,551C 242.961,562.305 256.628,571.805 271.5,579.5C 307.146,599.873 345.646,610.206 387,610.5C 436.505,610.383 482.005,597.049 523.5,570.5C 463.568,618.289 395.902,634.122 320.5,618C 251.779,600.268 202.946,559.101 174,494.5C 154.943,445.25 156.109,396.583 177.5,348.5 Z"/></g>
<g><path style="opacity:1" fill="#e4e4e4" d="M 589.5,422.5 C 589.104,425.044 589.771,427.211 591.5,429C 589.186,432.419 588.186,436.252 588.5,440.5C 588.287,443.527 588.953,446.193 590.5,448.5C 583.759,471.656 572.592,492.322 557,510.5C 570.677,490.541 580.344,468.541 586,444.5C 587.3,437.04 588.467,429.707 589.5,422.5 Z"/></g>
<g><path style="opacity:1" fill="#f4f4f4" d="M 509.5,328.5 C 509.5,327.833 509.833,327.5 510.5,327.5C 527.144,334.634 540.311,345.967 550,361.5C 570.103,397.311 574.103,434.977 562,474.5C 549.153,512.052 526.319,541.886 493.5,564C 432.756,602.12 368.423,609.453 300.5,586C 289.662,581.412 278.996,576.579 268.5,571.5C 228.343,548.507 198.843,515.84 180,473.5C 169.752,448.499 165.585,422.499 167.5,395.5C 168.907,384.539 171.574,373.872 175.5,363.5C 159.774,430.432 177.107,487.265 227.5,534C 297.277,592.727 374.61,605.06 459.5,571C 513.574,545.343 546.407,503.176 558,444.5C 562.918,412.229 556.918,382.229 540,354.5C 532.101,343.139 521.934,334.473 509.5,328.5 Z"/></g>
<g><path style="opacity:1" fill="#c9c9c9" d="M 451.5,542.5 C 453.359,543.594 455.359,544.427 457.5,545C 405.834,545.5 354.168,545.667 302.5,545.5C 352.342,545.165 402.008,544.165 451.5,542.5 Z"/></g>
<g><path style="opacity:1" fill="#474747" d="M 275.5,493.5 C 282.841,493.334 290.174,493.5 297.5,494C 289.372,495.624 281.372,495.79 273.5,494.5C 274.492,494.672 275.158,494.338 275.5,493.5 Z"/></g>
<g><path style="opacity:1" fill="#b8b8b8" d="M 229.5,476.5 C 243.151,486.497 258.484,492.164 275.5,493.5C 275.158,494.338 274.492,494.672 273.5,494.5C 256.842,492.951 241.842,487.285 228.5,477.5C 229.167,477.5 229.5,477.167 229.5,476.5 Z"/></g>
<g><path style="opacity:1" fill="#434343" d="M 251.5,442.5 C 251.735,441.903 252.235,441.57 253,441.5C 257.024,442.972 261.191,443.638 265.5,443.5C 270.609,443.371 275.609,442.871 280.5,442C 270.867,446.203 261.201,446.37 251.5,442.5 Z"/></g>
<g><path style="opacity:1" fill="#5c5c5c" d="M 240.5,432.5 C 242.63,434.127 244.63,435.96 246.5,438C 243.474,437.481 241.474,435.648 240.5,432.5 Z"/></g>
<g><path style="opacity:1" fill="#787878" d="M 299.5,424.5 C 300.559,426.07 300.059,427.403 298,428.5C 297.7,426.934 298.2,425.601 299.5,424.5 Z"/></g>
<g><path style="opacity:1" fill="#636363" d="M 248.5,395.5 C 253.156,394.325 257.822,394.825 262.5,397C 263.696,397.654 263.696,398.154 262.5,398.5C 258.675,396.855 254.675,396.188 250.5,396.5C 250.158,395.662 249.492,395.328 248.5,395.5 Z"/></g>
<g><path style="opacity:1" fill="#aeaeae" d="M 303.5,372.5 C 303.833,372.5 304.167,372.5 304.5,372.5C 306.745,375.754 308.245,379.42 309,383.5C 310.354,394.423 309.354,405.09 306,415.5C 304.92,417.996 303.586,420.33 302,422.5C 303.595,417.943 305.262,413.276 307,408.5C 309.807,396.054 308.641,384.054 303.5,372.5 Z"/></g>
<g><path style="opacity:1" fill="#121212" d="M 166.5,394.5 C 167.167,394.5 167.5,394.833 167.5,395.5C 165.585,422.499 169.752,448.499 180,473.5C 198.843,515.84 228.343,548.507 268.5,571.5C 268.062,571.435 267.728,571.601 267.5,572C 268.667,573.167 269.833,574.333 271,575.5C 270.645,576.959 270.811,578.293 271.5,579.5C 256.628,571.805 242.961,562.305 230.5,551C 184.061,509.2 162.728,457.034 166.5,394.5 Z"/></g>
<g><path style="opacity:1" fill="#949494" d="M 523.5,570.5 C 524.254,568.554 525.588,567.721 527.5,568C 526.529,569.481 525.196,570.315 523.5,570.5 Z"/></g>
<g><path style="opacity:1" fill="#919191" d="M 508.5,568.5 C 507.341,570.25 505.674,571.25 503.5,571.5C 504.659,569.75 506.326,568.75 508.5,568.5 Z"/></g>
<g><path style="opacity:1" fill="#6e6e6e" d="M 503.5,571.5 C 501.669,573.749 499.336,574.915 496.5,575C 498.577,573.295 500.91,572.128 503.5,571.5 Z"/></g>
</svg>
