<svg id="CIRCLE_OUTLINE_BLACK" data-name="CIRCLE OUTLINE BLACK" xmlns="http://www.w3.org/2000/svg" viewBox="0 0 512 512"><circle cx="256" cy="256" r="256" fill="#3d8130"/><path d="M157.11215,409.20737l3.72974.6781c-2.93845-.91575-6.28649-1.943-9.50408-2.92384Z" fill="none"/><polygon points="369.996 221.829 369.995 221.79 369.969 221.79 369.996 221.829" fill="#3d8130"/><path d="M372.61912,268.10929l-.00962-.01361.00265.02024Z" fill="#3d8130"/><polygon points="353.45 339.426 353.474 339.413 353.409 339.337 353.45 339.426" fill="#3d8130"/><path d="M152.09657,203.01794l-11.54835,22.39635-11.90117,23.45317-8.37756,21.99075-5.5868,23.39409-3.50138,25.56084-2.10966,22.13348-2.424,14.54455,2.3951,11.29111,4.14862,9.68066,7.56436,13.4094,17.59187,11.03753,12.99019,5.05176c3.21759.98081,6.56563,2.00809,9.50408,2.92384l15.40388,2.801,22.03589,1.04952,18.19563-.00133c2.05223,0,20.4563-1.04089,20.64184-1.05151l.03651-.002.03652.00066,23.43657.35051,22.5975-2.78146,9.81441-4.06132,6.69392-8.0327.27134-10.57782c-.36046-.87294-1.74555-4.2618-2.0695-5.55694-.33739-.89219-4.78921-6.19886-8.893-10.79523l-.081-.10355c-1.77011-2.58629-4.7391-7.14947-4.7391-8.64508,0-1.53478,1.82222-5.86429,2.18733-6.71665l.18952-.44278,9.361-2.73034,6.19372,4.47356,5.62365-3.124,6.32764-6.313,10.978-8.13525,9.97125-5.69833,7.94955-1.51421,10.40374,7.05985-.66881-.76938,4.33681-3.7679,3.98149-6.63567v-6.90053l-.75029-2.00112-5.12,4.14464-9.12154,2.55376-.153-.00332-13.96735-.34984-20.29682,2.13687-6.42456.67645-4.928-.67645-13.08744-1.79633L272.4217,323.133,248.474,319.25951l-.11019-.04647-22.92476-9.532-20.05867-11.61573-12.27525-8.30387-1.18294-5.91474,1.56531-5.47993,4.8619-3.64576,11.4126,2.58031,24.86215,7.70377c12.20886,2.49733,30.78055,6.22408,32.03951,6.28449h.00066c.57156,0,3.04831.39764,8.9843,1.37214,6.394,1.04952,15.15063,2.48738,16.96189,2.48738,3.119,0,26.97015,1.321,28.43822,1.40268,1.26742-.02125,20.71968-.35051,22.78519-.35051,1.37911,0,8.85253-2.4502,13.43014-4.05866l6.78071-8.13659,6.52978-11.34156a20.29407,20.29407,0,0,0-1.16286-9.65079,20.849,20.849,0,0,0-8.386-10.18417c-2.01921,3.75729-4.55356,6.21048-7.568,7.30049a10.46942,10.46942,0,0,1-3.57888.62466,11.24332,11.24332,0,0,1-5.1442-1.23937l1.00222-1.77575a9.20967,9.20967,0,0,0,7.055.46269c2.70711-.98977,4.997-3.37193,6.83033-7.092a19.45356,19.45356,0,0,1-7.019,1.25763,19.83313,19.83313,0,0,1-4.45548-.46933l.24728-.98911.24595-.98978c.077.01793,7.78592,1.85475,13.63593-2.60089,4.13518-3.14988,6.4239-8.66765,6.81009-16.41058l-6.73258,7.85512-8.09858,3.66236c-3.64992.91277-15.644,3.89005-16.737,3.89005-.42584,0-1.95531-.23765-5.89665-.86563-4.85045-.7727-12.18048-1.94105-14.10161-1.94105-3.41176,0-8.16828-3.66037-8.69934-4.07725l-.57057-.44875,3.81056-11.05014,10.48273-11.88724,11.14126-7.90623,13.76969.006,13.022,1.44715,5.60689,6.36881,2.693,4.03941V209.17166l-10.80884-3.93055c-1.16867-.17061-11.9191-1.72862-14.4848-1.72862-2.48722,0-12.098,1.46773-13.66166,1.7087l-13.85035,9.00289-1.11125-1.71,14.21645-9.24054.21541-.03385c.4617-.0717,11.33825-1.76646,14.1914-1.76646,2.8485,0,14.39369,1.69343,14.88376,1.76513l.20015.05045,11.73522,4.283,1.12818.64458.09426-.75411-5.45537-4.81411-9.87914-4.769-11.96025-1.02562L330.44723,199.266l-5.50118,2.407-.8175-1.868,5.84653-2.52654,14.1645-2.47875,12.59887,1.08005.51928.2506-3.78517-5.91042-10.66446-9.41712.10672-.12082-41.57711,1.15507s-5.40409.68441-11.62585,1.46342l5.88885,8.512,3.0201,5.28476-1.52133,5.32526-1.961-.56028,1.28534-4.49945-2.57185-4.50011-6.29-9.08587.36577-.25291c-7.76185.96952-16.1009,1.9968-16.58716,1.9968-.92106,0-34.339,2.5-35.65473,2.5a64.3107,64.3107,0,0,1-8.2886-1.0525c-.52642-.26321-22.76113-8.42038-23.55076-8.9468-.78929-.52608-8.55181-8.02539-8.55181-8.02539l-15.24788-4.71088-13.274,16.41722Zm162.32759,45.90661a47.90806,47.90806,0,0,1,5.6663,3.118l11.41724,1.34293,6.50256-1.36882.42021,1.99548L331.601,255.45l-7.86259-.92539a58.04589,58.04589,0,0,1,9.31405,8.48908,48.15444,48.15444,0,0,1,5.34617,7.37916l-1.75982,1.03026a46.425,46.425,0,0,0-6.36614-8.40942,59.38793,59.38793,0,0,0-10.95024-9.00819l-.01875-.002-5.79143-3.25743Zm-114.33422-37.46,9.07524-8.70814,7.91819-6.47834,11.29244-2.17205,11.929-.35051,12.65994-.00066,10.5433.3505,21.32792.35582,6.708,4.12173,8.17309,7.47673,4.726,5.81716,2.15181,11.83545-2.00644.36511L302.53028,212.757l-4.34809-5.35247-7.94126-7.24971-5.99439-3.66369-16.65089-.27781,7.261,3.982c3.88839,2.01075,10.55824,5.62465,11.29808,7.10433.463.84439,5.784,6.04684,10.65914,10.58612l.11.12016,7.536,9.68928,1.08968,7.98988-2.02071.27616-1.01533-7.44687-7.14913-9.19207c-2.48705-2.31611-10.312-9.66739-11.03355-11.11056-.55031-.782-5.84968-3.84557-10.43278-6.21678l-10.6847-5.859-10.28242-.34253-12.59621.00066-11.8162.34785-10.54231,2.04-7.488,6.12717-8.49837,8.15783-.90348,5.42084,1.84944,1.61776,4.45829-2.37718,7.411-9.17614,13.36459-5.05707,17.42525-1.77774,14.68163,1.43254,19.12034,9.91367,7.94308,4.692,7.59473,10.12675,3.45043,11.04151,5.06869,3.25742V246.096l-4.67271,4.28238-8.44726,3.51964-3.61091,2.95471-3.79148,6.161-1.87864,3.0523-.24694.13011c-2.53219,1.333-6.91713,3.55482-8.13725,3.62452-.88356.164-6.54306,2.74428-11.54072,5.16262l-.14438.05643c-.3754.1155-9.21166,2.83058-11.35916,3.18905l-.33556-2.01141c1.91681-.32,10.15032-2.83722,11.02126-3.10408,5.04512-2.43958,11.244-5.32991,12.30213-5.32991a54.60012,54.60012,0,0,0,6.99679-3.26206l.9277-1.50757,4.62923-7.52187,1.07541-.87991c-3.18208-.29308-7.425-.78664-8.51165-1.40832-.53306-.17924-3.49175-.57289-19.15121-.57289-3.91362,0-13.14619-2.105-14.35569-2.50795-1.025-.34188-10.39859-3.11935-10.49319-3.14723l-.23765-.07037-.17857-.17193c-.087-.083-8.76125-8.38021-15.24224-12.13285l1.022-1.76446c6.24632,3.61655,14.12866,10.99836,15.45167,12.25433,1.50358.44543,9.34709,2.77282,10.32259,3.0981,1.12021.37307,10.06966,2.40307,13.71111,2.40307,18.9036,0,19.7231.54634,20.213.87294.66881.35183,5.19448.91874,8.99193,1.23539l-.05842.698,1.54872-1.26692,8.39316-3.49707,3.74766-3.43533v-2.50331l-2.59973-1.67086.118.31466-8.659,3.21493-12.018,1.41064c-.57488.01726-3.23652.09029-6.14543.09029-3.3623,0-7.05453-.09759-8.2408-.49323-1.62241-.541-11.65423-2.74163-16.73188-3.82965l-.14206-.03053-.12745-.069c-6.34424-3.41541-14.05332-7.70709-14.74968-8.752-.48526-.57023-4.35872-2.63408-7.65962-4.206l-.07535-.03983-11.10723-6.479-1.52316.28545-.24694-1.318-3.47184-2.02535-5.38169,2.87007-3.76426-3.29393Zm4.56982,47.92665.47862,1.98221-6.795,1.64032-3.37957.81585-.19716-.81585-.28146-1.16635Zm4.35971,9.47819L208.5,270.84162a17.72957,17.72957,0,0,0-6.98915.03651c-3.77123.705-9.39753,2.85912-14.78453,9.11507l-1.5454-1.33032C196.3456,265.69825,208.50733,268.734,209.01947,268.86937Z" fill="#3d8130"/><path d="M222.67183,218.32125c.60409-.07236,14.81639-1.76181,16.61007-1.76181.68574,0,2.71241.18122,5.27879.41091,3.52229.31532,9.41778.84307,10.2698.67047,1.43056-.35781,15.39957-1.63435,16.98779-1.77907l8.31814-.59413-1.72762-1.021-18.72171-9.70522-14.08751-1.37413L228.642,204.89724l-12.59786,4.76631-6.44846,7.98391,4.052,2.36357Z" fill="#3d8130"/><path d="M271.98324,217.8944c-6.15405.55961-15.692,1.483-16.66582,1.72663-.90547.2257-4.10614-.00863-10.93862-.61936-2.31545-.20711-4.50244-.40294-5.0969-.40294-1.38542,0-12.22745,1.25464-16.33524,1.74322l-6.60745,1.239,9.03508,5.27049c2.81332,1.34028,7.56735,3.71746,8.40843,4.85195.75743.76075,7.62742,4.67205,13.92453,8.06489,1.61245.34586,14.761,3.17643,16.80722,3.85885,1.40367.46734,9.08852.43149,13.63676.30072l11.76111-1.38475,7.11544-2.66761-.36826-.23666L293.09276,228.225l-7.14018-9.52-4.21566-2.49136.07.97915Z" fill="#3d8130"/><path d="M364.42512,217.14958l-4.95633-5.61734-12.183-1.35355H334.33529l-10.5141,7.46147-9.96312,11.33758-3.20116,9.283c1.62738,1.17963,4.84647,3.209,6.86352,3.209,2.08261,0,8.92472,1.09068,14.42258,1.96693,2.55508.40693,5.1973.8278,5.583.83975.89816-.05974,10.34332-2.3566,16.145-3.80641l7.4286-3.37691,5.85848-6.83481-.52973-3.17843-18.24774-7.43425-23.32273-.69636.06074-2.038,23.69049.707,19.64345,8.00249.84472,5.06769q.01891-.42418.03054-.857l-.00033-5.628Z" fill="#3d8130"/><path d="M342.55784,334.43868l-6.78619,1.29248-9.6229,5.49918-10.767,7.98789-3.00931,3.00948,6.80527,4.76332.46883,3.75065-4.56268,4.56252-1.44184-1.44184,3.85736-3.85753-.23284-1.86271-6.35785-4.45066-1.89009,1.89026-3.98416,2.21355-1.12967,5.36674,5.56556,4.94688,8.05294-.322c1.5318-1.1,3.97951-2.72769,5.16262-2.816a29.09408,29.09408,0,0,0,3.52-2.43161c2.738-2.05323,3.80376-2.802,4.59322-2.8339a47.99651,47.99651,0,0,0,6.85572-4.04008l.311-.20711,9.84629,1.13581,3.40379,3.40347-.67213.72025c-2.13687,2.29022-4.51123,5.25158-4.64,6.01034a4.114,4.114,0,0,1-.33009,1.40135l2.27877-1.25332,10.82842-7.68584,1.18029,1.66356-10.9748,7.78077-5.12561,2.819c-.20081.306-.37473.55928-.49488.73121l-.3671-.2569-7.837,4.31026-5.41073,7.77745-1.85607,4.64085,3.86151,5.46964,4.27159,4.92928,5.05425.632,4.68-1.00272-.05792-1.04188,5.24029-8.18173,9.82371-9.47288,1.41562,1.4684-9.73642,9.38857-4.67072,7.33932.30487,5.4879,4.98521,3.42736,6.55185.6552,3.73638-1.14975L362.547,405.543l.52294-.58816c.23-.25889,5.64572-6.35021,6.70719-7.411.8117-.81187,5.37073-6.0568,7.66791-8.71678l1.54341,1.333c-.27316.316-6.7027,7.75886-7.76932,8.82564-.83261.83244-4.686,5.14735-6.10177,6.7359l3.47051,5.20643H374.495l5.14419-2.25105,4.15028-6.19953,5.61353-5.96452,1.485,1.398-5.555,5.90212-4.32868,6.49294-6.08285,2.6613h-7.425l-3.06109-4.59172-4.71022,1.44914-7.48221-.74814-6.24185-4.29167-.22437-4.03941-4.70491,1.00769-6.1728-.77137-4.71055-5.43545-7.00625-4.20339-7.32853-8.06157-1.79849-12.58956,2.01871-.28811,1.54308,10.80254,8.70532-6.86668,9.37015-9.02346,5.36326-7.44886-2.58164-.29806c-2.858,1.89458-6.32316,4.04274-7.51855,4.1682a28.71816,28.71816,0,0,0-3.52611,2.43361c-2.80038,2.10036-3.85122,2.83522-4.64633,2.83522a21.33329,21.33329,0,0,0-4.31208,2.61152l-.2501.18189-9.4908.38037-7.06483-6.27985,1.00919-4.79386-.66267.3681-6.43668-4.64882-7.47706,2.18069a27.2784,27.2784,0,0,0-1.8355,5.472c.0863.78531,2.31545,4.46692,4.34578,7.43956,2.71142,3.03836,8.93683,10.13073,9.30658,11.60909.27234,1.09,1.57727,4.31756,2.05705,5.4693l.08364.20115-.34817,13.57734,3.90017,5.84969c2.00876,1.17233,16.746,9.77027,18.40191,10.764,1.18445.711,11.78683,3.72874,18.25305,5.48059l21.899,2.08576,17.628-2.419,15.143-6.88393,8.20861-7.87969-1.91532-7.022-10.09837-18.80436-7.30049-11.12449-12.46228-13.84686-18.734-10.25089-2.82942-6.01232Z" fill="#3d8130"/><path d="M358.47138,293.87923l-.26437.09294c-2.01954.71295-12.20339,4.26843-14.37312,4.26843-2.07248,0-22.58073.34785-22.78768.35117l-.03684.00067-.037-.002c-.25226-.01394-25.26826-1.402-28.36188-1.402-1.97788,0-10.11381-1.33563-17.29248-2.51459-3.99959-.65653-8.13592-1.33563-8.6723-1.34493-1.43188,0-27.30738-5.27746-32.47995-6.33561l-.09759-.02522L209.19671,279.261l-10.378-2.34266-3.5588,2.6686-1.241,4.34478.92173,4.60965,11.55266,7.81529,19.90964,11.52611,22.63268,9.40118,23.73961,3.84093,14.76329,2.81133,17.71849,2.43095,26.60737-2.80137.06638.00133,13.88056.34785,8.421-2.3586,7.07959-5.73019L367.11,306.958l1.25265-4.07061-1.883-4.5738c-8.35665,7.61016-9.34559,7.86043-9.76845,7.966l-8.62218,2.13488-23.90873,1.05483-.05128-.00266-25.03624-1.41861-24.80971-4.54326-20.03378.35183-.1321-.03319L233.335,298.53535l-18.43958-6.40664-9.82372-5.96453,1.05848-1.74322,9.73078,5.9081,18.1007,6.26524,20.52534,5.21905,19.96341-.35051.09991.01793,24.84722,4.5499,24.79527,1.3967,23.70377-1.0462,8.32013-2.07978c.52692-.20911,3.277-2.37386,9.17-7.7509.783-.71428,1.3489-1.23738,1.53992-1.41463l7.6178-10.38763L377.133,279.895a39.46471,39.46471,0,0,1-.98678-5.03914,27.534,27.534,0,0,0-3.41226-4.35972,17.29633,17.29633,0,0,1-.18056,2.70146l-.0317.1726-6.8539,11.87329Z" fill="#983b1f"/><path d="M405.13244,399.9894l-10.22948-19.048L387.48945,369.637l-12.84116-14.285-18.45551-10.0982-2.74246-5.82811-.53837.29142s1.71037,6.18359,2.89448,6.84145,17.23522,8.815,18.02469,9.20967c.78946.395,14.73556,16.97218,14.73556,16.97218l11.18308,19.47184,6.70984,14.99861s-8.55181,8.815-9.07806,8.9468c-.52625.13143-17.10362,8.15716-17.62988,8.15716s-16.57753,1.8418-17.49843,1.57859c-.9209-.26288-20.65595-1.97357-22.23488-2.105-1.57876-.13144-19.86649-7.36787-19.86649-7.36787L304.36379,406.948l-4.47323-6.97322-6.3152,7.10466s-8.94646,4.47323-10.13073,4.47323c-1.184,0-23.02434,2.89463-24.73437,2.89463H214.76659s-43.41691-.78962-45.25871-1.71036c-.59778-.29872-4.146-1.44284-8.666-2.85149l-3.72974-.6781-5.77434-2.24574c-7.08906-2.16044-13.53785-4.09219-13.53785-4.09219L119.907,391.29155s-7.4993-13.02538-7.76251-13.68323c-.26321-.65753-4.86788-11.57789-4.86788-12.104,0-.52642-1.57893-9.20967-1.57893-9.20967l3.15785-19.86649,1.44716-20.91932,3.42072-22.76113s5.65717-22.89257,5.78894-23.94507c.13144-1.05251,9.34111-23.68187,9.34111-23.68187l9.73609-17.4986,12.76183-26.44506,14.07788-19.86649,13.6829-16.31433.93467.28877.03386-.04182-1.5859-1.28252-13.33239,16.48957-14.78221,21.46434-11.64759,22.57094-11.92839,23.50694-8.46385,22.20119-5.65253,23.63307-3.53158,25.75136-2.102,22.06842-2.48173,14.88974,2.496,11.76708,4.27043,10.0139,7.89461,14.00751,18.11232,11.36414,19.118,7.45483,19.48379,3.56079L198.2332,415.774h18.24409c2.0831,0,19.55183-.98645,20.72084-1.05217l23.47043.3505.07.00066,22.87464-2.81464.13741-.01726,10.53468-4.36005,5.3938-6.47236,4.49347,6.73989.20363.11882c.16845.09825,16.85519,9.832,18.58381,10.86958,1.82321,1.094,17.1154,5.2529,18.85315,5.72356l22.39087,2.14683,18.01042-2.47144.1477-.02058,15.57283-7.0791.15865-.0717,9.33381-8.9604Z"/><path d="M165.4293,181.31064l-14.07788,19.86649-12.76183,26.44506-9.73609,17.4986s-9.20967,22.62936-9.34111,23.68187c-.13177,1.0525-5.78894,23.94507-5.78894,23.94507l-3.42072,22.76113-1.44716,20.91932-3.15785,19.86649s1.57893,8.68325,1.57893,9.20967c0,.52609,4.60467,11.44645,4.86788,12.104.26321.65785,7.76251,13.68323,7.76251,13.68323L137.8,402.86944s6.44879,1.93175,13.53785,4.09219l-12.99019-5.05176-17.59187-11.03753-7.56436-13.4094-4.14862-9.68066-2.3951-11.29111,2.424-14.54455,2.10966-22.13348,3.50138-25.56084,5.5868-23.39409,8.37756-21.99075,11.90117-23.45317,11.54835-22.39635,14.67632-21.31564,13.274-16.41722-.93467-.28877Z"/><path d="M343.00493,332.27724l-7.94955,1.51421-9.97125,5.69833-10.978,8.13525-6.32764,6.313-5.62365,3.124-6.19372-4.47356-9.361,2.73034-.18952.44278c-.36511.85236-2.18733,5.18187-2.18733,6.71665,0,1.49561,2.969,6.05879,4.7391,8.64508l.081.10355c4.10381,4.59637,8.55563,9.903,8.893,10.79523.324,1.29514,1.709,4.684,2.0695,5.55694l-.27134,10.57782-6.69392,8.0327-9.81441,4.06132-22.5975,2.78146-23.43657-.35051-.03652-.00066-.03651.002c-.18554.01062-18.58961,1.05151-20.64184,1.05151l-18.19563.00133-22.03589-1.04952-15.40388-2.801c4.52,1.40865,8.06821,2.55277,8.666,2.85149,1.8418.92074,45.25871,1.71036,45.25871,1.71036h43.94367c1.71,0,23.55042-2.89463,24.73437-2.89463,1.18427,0,10.13073-4.47323,10.13073-4.47323l6.3152-7.10466,4.47323,6.97322,15.78807,9.47254s18.28773,7.23643,19.86649,7.36787c1.57893.13144,21.314,1.84213,22.23488,2.105.9209.26321,16.97218-1.57859,17.49843-1.57859s17.10363-8.02573,17.62988-8.15716c.52625-.13177,9.07806-8.9468,9.07806-8.9468l-6.70984-14.99861-11.18308-19.47184s-13.9461-16.5772-14.73556-16.97218c-.78947-.39465-16.84058-8.55182-18.02469-9.20967s-2.89448-6.84145-2.89448-6.84145l.53837-.29142-.04165-.08863Zm11.62585,14.44631,18.734,10.25089,12.46228,13.84686,7.30049,11.12449,10.09837,18.80436,1.91532,7.022-8.20861,7.87969-15.143,6.88393-17.628,2.419-21.899-2.08576c-6.46622-1.75185-17.0686-4.76963-18.25305-5.48059-1.65592-.99376-16.39315-9.5917-18.40191-10.764l-3.90017-5.84969.34817-13.57734-.08364-.20115c-.47978-1.15174-1.78471-4.37929-2.05705-5.4693-.36975-1.47836-6.59516-8.57073-9.30658-11.60909-2.03033-2.97264-4.25948-6.65425-4.34578-7.43956a27.2784,27.2784,0,0,1,1.8355-5.472l7.47706-2.18069,6.43668,4.64882.66267-.3681-1.00919,4.79386,7.06483,6.27985,9.4908-.38037.2501-.18189a21.33329,21.33329,0,0,1,4.31208-2.61152c.79511,0,1.846-.73486,4.64633-2.83522a28.71816,28.71816,0,0,1,3.52611-2.43361c1.19539-.12546,4.66059-2.27362,7.51855-4.1682l2.58164.29806-5.36326,7.44886-9.37015,9.02346-8.70532,6.86668-1.54308-10.80254-2.01871.28811,1.79849,12.58956,7.32853,8.06157,7.00625,4.20339,4.71055,5.43545,6.1728.77137,4.70491-1.00769.22437,4.03941,6.24185,4.29167,7.48221.74814,4.71022-1.44914,3.06109,4.59172h7.425l6.08285-2.6613,4.32868-6.49294,5.555-5.90212-1.485-1.398-5.61353,5.96452-4.15028,6.19953L374.495,410.928h-5.90711l-3.47051-5.20643c1.41579-1.58855,5.26916-5.90346,6.10177-6.7359,1.06662-1.06678,7.49616-8.50966,7.76932-8.82564l-1.54341-1.333c-2.29718,2.66-6.85621,7.90491-7.66791,8.71678-1.06147,1.0608-6.47718,7.15212-6.70719,7.411l-.52294.58816.70815,1.06213-3.73638,1.14975-6.55185-.6552-4.98521-3.42736-.30487-5.4879,4.67072-7.33932,9.73642-9.38857-1.41562-1.4684-9.82371,9.47288-5.24029,8.18173.05792,1.04188-4.68,1.00272-5.05425-.632-4.27159-4.92928-3.86151-5.46964,1.85607-4.64085,5.41073-7.77745,7.837-4.31026.3671.2569c.12015-.17193.29407-.42518.49488-.73121l5.12561-2.819,10.9748-7.78077-1.18029-1.66356-10.82842,7.68584-2.27877,1.25332a4.114,4.114,0,0,0,.33009-1.40135c.12878-.75876,2.50314-3.72012,4.64-6.01034l.67213-.72025-3.40379-3.40347-9.84629-1.13581-.311.20711a47.99651,47.99651,0,0,1-6.85572,4.04008c-.78946.03187-1.85525.78067-4.59322,2.8339a29.09408,29.09408,0,0,1-3.52,2.43161c-1.18311.08829-3.63082,1.716-5.16262,2.816l-8.05294.322-5.56556-4.94688,1.12967-5.36674,3.98416-2.21355,1.89009-1.89026,6.35785,4.45066.23284,1.86271-3.85736,3.85753,1.44184,1.44184,4.56268-4.56252-.46883-3.75065-6.80527-4.76332,3.00931-3.00948,10.767-7.98789,9.6229-5.49918,6.78619-1.29248,9.24352,6.27255Zm-27.39949,44.67056-2.74228-1.64564-6.01764-6.61873,9.15341-7.22017,9.54872-9.18876,6.20118-8.58566,3.49773.40394,1.51288,1.51221c-1.93308,2.12758-4.51854,5.23564-4.51854,6.637a10.38175,10.38175,0,0,1-1.551,3.23286l-8.65537,4.76033-5.75,8.26537-2.42033,5.98046Z"/><path d="M351.72784,187.626l5.13109,6.70968s2.49983,3.94714,3.42089,4.21035c.9209.26321,9.20967,5.13109,9.20967,5.13109l3.42072,3.81537-.65785,2.23678-2.63143-.78962.37357,12.85012h.82149V210.21453l2.25836,1.29049.6074-4.85924-6.47335-5.71161-6.99878-3.37857.271-.1736-5.44441-8.50169L344.158,179.27467l-1.24319,1.40732,1.05067-.02921Z"/><path d="M368.7,240.25259s-3.68394,7.36786-4.07858,7.63107c-.39482.26288-3.68394,1.71036-3.68394,1.71036l.26321,1.84181a43.41634,43.41634,0,0,1,4.34163,3.55216c.16114.32229,2.44257,4.688,4.188,8.02572h1.78637a22.71215,22.71215,0,0,0-9.58739-12.02829q.28776-.64476.55811-1.33265c.33922-.21773.67612-.44642,1.00787-.69835,4.85111-3.68493,7.43209-10.1002,7.67157-19.09578V223.5861l-1.17117-1.75683.28313,9.74007Z"/><path d="M353.47256,190.21993l3.78517,5.91042-.51928-.2506-12.59887-1.08-14.1645,2.47875-5.84653,2.52654.8175,1.868,5.50118-2.407,13.78264-2.41237,11.96025,1.02562,9.87914,4.769,5.45537,4.81411-.09426.75411-1.12818-.64458-11.73522-4.283-.20015-.05045c-.49007-.0717-12.03526-1.76513-14.88376-1.76513-2.85315,0-13.7297,1.69476-14.1914,1.76646l-.21541.03385-14.21645,9.24054,1.11125,1.71,13.85035-9.00289c1.56366-.241,11.17444-1.7087,13.66166-1.7087,2.5657,0,13.31613,1.558,14.4848,1.72862l10.80884,3.93055v10.82908l-2.693-4.03941-5.60689-6.36881-13.022-1.44715-13.76969-.006-11.14126,7.90623-10.48273,11.88724L308.25052,238.983l.57057.44875c.53106.41688,5.28758,4.07725,8.69934,4.07725,1.92113,0,9.25116,1.16835,14.10161,1.94105,3.94134.628,5.47081.86563,5.89665.86563,1.093,0,13.08711-2.97728,16.737-3.89005l8.09858-3.66236,6.73258-7.85512c-.38619,7.74293-2.67491,13.2607-6.81009,16.41058-5.85,4.45564-13.55892,2.61882-13.63593,2.60089l-.24595.98978-.24728.98911a19.83313,19.83313,0,0,0,4.45548.46933,19.45356,19.45356,0,0,0,7.019-1.25763c-1.83334,3.72011-4.12322,6.10227-6.83033,7.092a9.20967,9.20967,0,0,1-7.055-.46269l-1.00222,1.77575a11.24332,11.24332,0,0,0,5.1442,1.23937,10.46942,10.46942,0,0,0,3.57888-.62466c3.01446-1.09,5.54881-3.5432,7.568-7.30049a20.849,20.849,0,0,1,8.386,10.18417h.31864c-1.74538-3.33774-4.02681-7.70343-4.188-8.02572a43.41634,43.41634,0,0,0-4.34163-3.55216l-.26321-1.84181s3.28912-1.44748,3.68394-1.71036c.39464-.26321,4.07858-7.63107,4.07858-7.63107l1.57876-8.68325-.28313-9.74007-.02639-.0395h.02523l-.37357-12.85012,2.63143.78962.65785-2.23678-3.42072-3.81537s-8.28877-4.86788-9.20967-5.13109c-.92106-.26321-3.42089-4.21035-3.42089-4.21035l-5.13109-6.70968-7.76235-6.97322-1.05067.02921-.10672.12082Zm15.62477,40.4685-.84472-5.06769-19.64345-8.00249-23.69049-.707-.06074,2.038,23.32273.69636,18.24774,7.43425.52973,3.17843-5.85848,6.83481-7.4286,3.37691c-5.80173,1.44981-15.24689,3.74667-16.145,3.80641-.38569-.01195-3.02791-.43282-5.583-.83975-5.49786-.87625-12.34-1.96693-14.42258-1.96693-2.017,0-5.23614-2.02933-6.86352-3.209l3.20116-9.283,9.96312-11.33758,10.5141-7.46147h12.95052l12.183,1.35355,4.95633,5.61734,4.70242,7.05388.00033,5.628Q369.11641,230.26458,369.09733,230.68843Z"/><polygon points="305.225 328.421 311.649 327.745 300.297 327.745 305.225 328.421"/><path d="M362.12162,328.13925c-.263.52642-6.052,9.86753-6.052,9.86753l-2.59525,1.406.60309.69371,4.5811-3.98034,4.43888-7.39774v-.9838h-.90879A1.335,1.335,0,0,1,362.12162,328.13925Z"/><path d="M362.12162,328.13925a1.335,1.335,0,0,0,.067-.39465h-1.13051v.41954l-3.98149,6.63567-4.33681,3.7679.66881.76938.06572.07568,2.59525-1.406S361.85858,328.66567,362.12162,328.13925Z"/><path d="M371.72611,266.82909l.88339,1.26659a23.52377,23.52377,0,0,0-1.09283-5.082H369.7303C370.83541,265.12669,371.72611,266.82909,371.72611,266.82909Z"/><path d="M378.17274,278.01233c-.13144.52641-1.31555,4.47323-1.57876,5.13108-.263.65786-9.73592,13.55146-9.73592,13.55146l2.23662,4.47323s.39481,3.15752.1316,3.68394c-.26321.52608-8.55181,13.41968-8.55181,13.41968l1.31571,3.5525s.306,4.49414.19849,5.92038h.90879v-6.8514l-1.1174-2.97928-.01195.00465.8756-.709,6.13065-9.37662,1.554-5.05043-2.447-5.93665c.19267-.17823.304-.28146.304-.28146l7.84666-10.6691,3.06906-5.73219-.0951-.381a41.53107,41.53107,0,0,1-1.02213-5.01525c0-.35979,0-1.45379-5.186-7.01072l-.37872.35316,3.054,4.3773S378.30435,277.48591,378.17274,278.01233Z"/><path d="M369.7303,263.01371h-.31864a20.29407,20.29407,0,0,1,1.16286,9.65079l-6.52978,11.34156-6.78071,8.13659c-4.57761,1.60846-12.051,4.05866-13.43014,4.05866-2.06551,0-21.51777.32926-22.78519.35051-1.46807-.08165-25.3192-1.40268-28.43822-1.40268-1.81126,0-10.56787-1.43786-16.96189-2.48738-5.936-.9745-8.41274-1.37214-8.9843-1.37214h-.00066c-1.259-.06041-19.83065-3.78716-32.03951-6.28449L209.762,277.30136l-11.4126-2.58031-4.8619,3.64576-1.56531,5.47993,1.18294,5.91474,12.27525,8.30387L225.439,309.68108l22.92476,9.532.11019.04647L272.4217,323.133l14.78752,2.81531,13.08744,1.79633h11.35251l20.29682-2.13687,13.96735.34984.153.00332,9.12154-2.55376,5.12-4.14464.75029,2.00112v6.481h1.13051c.10754-1.42624-.19849-5.92038-.19849-5.92038l-1.31571-3.5525s8.2886-12.8936,8.55181-13.41968c.26321-.52642-.1316-3.68394-.1316-3.68394l-2.23662-4.47323s9.47288-12.8936,9.73592-13.55146c.26321-.65785,1.44732-4.60467,1.57876-5.13108.13161-.52642-2.49966-5.52574-2.49966-5.52574l-3.054-4.3773-.007.00663-.00265-.02024-.88339-1.26659S370.83541,265.12669,369.7303,263.01371Zm2.82311,10.18384a17.29633,17.29633,0,0,0,.18056-2.70146,27.534,27.534,0,0,1,3.41226,4.35972,39.46471,39.46471,0,0,0,.98678,5.03914l-2.58861,4.85328-7.6178,10.38763c-.191.17725-.75693.70035-1.53992,1.41463-5.893,5.377-8.64309,7.54179-9.17,7.7509l-8.32013,2.07978-23.70377,1.0462-24.79527-1.3967-24.84722-4.5499-.09991-.01793-19.96341.35051-20.52534-5.21905-18.1007-6.26524-9.73078-5.9081-1.05848,1.74322,9.82372,5.96453,18.43958,6.40664,20.78225,5.28808.1321.03319,20.03378-.35183,24.80971,4.54326,25.03624,1.41861.05128.00266,23.90873-1.05483,8.62218-2.13488c.42286-.10555,1.4118-.35582,9.76845-7.966l1.883,4.5738L367.11,306.958l-5.79808,8.86813-7.07959,5.73019-8.421,2.3586-13.88056-.34785-.06638-.00133L305.257,326.36715l-17.71849-2.43095-14.76329-2.81133-23.73961-3.84093-22.63268-9.40118-19.90964-11.52611-11.55266-7.81529-.92173-4.60965,1.241-4.34478,3.5588-2.6686,10.378,2.34266,24.87145,7.70709.09759.02522c5.17257,1.05815,31.04807,6.33561,32.47995,6.33561.53638.0093,4.67271.6884,8.6723,1.34493,7.17867,1.179,15.3146,2.51459,17.29248,2.51459,3.09362,0,28.10962,1.38807,28.36188,1.402l.037.002.03684-.00067c.207-.00332,20.7152-.35117,22.78768-.35117,2.16973,0,12.35358-3.55548,14.37312-4.26843l.26437-.09294,7.19643-8.63579,6.8539-11.87329Z"/><path d="M201.51087,270.87813a17.72957,17.72957,0,0,1,6.98915-.03651l.51945-1.97225c-.51214-.13542-12.67387-3.17112-23.83853,9.79351l1.5454,1.33032C192.11334,273.73725,197.73964,271.58312,201.51087,270.87813Z"/><polygon points="198.343 263.014 205.138 261.373 204.66 259.391 194.485 261.847 194.767 263.014 198.343 263.014"/><polygon points="194.964 263.83 198.343 263.014 194.767 263.014 194.964 263.83"/><path d="M319.3224,254.00552a59.38793,59.38793,0,0,1,10.95024,9.00819h2.77979a58.04589,58.04589,0,0,0-9.31405-8.48908l7.86259.92539,6.8295-1.43786-.42021-1.99548-6.50256,1.36882-11.41724-1.34293a47.90806,47.90806,0,0,0-5.6663-3.118l-.91194,1.82155,5.79143,3.25743Z"/><path d="M336.63878,271.42313l1.75982-1.03026a48.15444,48.15444,0,0,0-5.34617-7.37916h-2.77979A46.425,46.425,0,0,1,336.63878,271.42313Z"/><path d="M208.03435,219.0976l3.47184,2.02535.24694,1.318,1.52316-.28545,11.10723,6.479.07535.03983c3.3009,1.57195,7.17436,3.6358,7.65962,4.206.69636,1.04487,8.40544,5.33655,14.74968,8.752l.12745.069.14206.03053c5.07765,1.088,15.10947,3.28863,16.73188,3.82965,1.18627.39564,4.8785.49323,8.2408.49323,2.90891,0,5.57055-.073,6.14543-.09029l12.018-1.41064,8.659-3.21493-.118-.31466,2.59973,1.67086v2.50331l-3.74766,3.43533-8.39316,3.49707-1.54872,1.26692.05842-.698c-3.79745-.31665-8.32312-.88356-8.99193-1.23539-.48991-.3266-1.30941-.87294-20.213-.87294-3.64145,0-12.5909-2.03-13.71111-2.40307-.9755-.32528-8.819-2.65267-10.32259-3.0981-1.323-1.256-9.20535-8.63778-15.45167-12.25433l-1.022,1.76446c6.481,3.75264,15.15528,12.04987,15.24224,12.13285l.17857.17193.23765.07037c.0946.02788,9.46823,2.80535,10.49319,3.14723,1.2095.40294,10.44207,2.50795,14.35569,2.50795,15.65946,0,18.61815.39365,19.15121.57289,1.08669.62168,5.32957,1.11524,8.51165,1.40832l-1.07541.87991-4.62923,7.52187h2.39477l3.79148-6.161,3.61091-2.95471,8.44726-3.51964,4.67271-4.28238v-4.51472l-5.06869-3.25742-3.45043-11.04151L287.34,217.15556l-7.94308-4.692-19.12034-9.91367-14.68163-1.43254-17.42525,1.77774L214.8051,207.9522l-7.411,9.17614-4.45829,2.37718-1.84944-1.61776.90348-5.42084,8.49837-8.15783,7.488-6.12717,10.54231-2.04,11.8162-.34785,12.59621-.00066,10.28242.34253,10.6847,5.859c4.5831,2.37121,9.88247,5.43479,10.43278,6.21678.72159,1.44317,8.5465,8.79445,11.03355,11.11056l7.14913,9.19207,1.01533,7.44687,2.02071-.27616-1.08968-7.98988-7.536-9.68928-.11-.12016c-4.87518-4.53928-10.19612-9.74173-10.65914-10.58612-.73984-1.47968-7.40969-5.09358-11.29808-7.10433l-7.261-3.982,16.65089.27781,5.99439,3.66369,7.94126,7.24971,4.34809,5.35247,2.05821,11.32032,2.00644-.36511-2.15181-11.83545-4.726-5.81716-8.17309-7.47673-6.708-4.12173-21.32792-.35582-10.5433-.3505-12.65994.00066-11.929.35051-11.29244,2.17205-7.91819,6.47834-9.07524,8.70814-1.20154,7.20921,3.76426,3.29393Zm77.91823-.39266,7.14018,9.52,3.56676,11.41392.36826.23666-7.11544,2.66761-11.76111,1.38475c-4.54824.13077-12.23309.16662-13.63676-.30072-2.04626-.68242-15.19477-3.513-16.80722-3.85885-6.29711-3.39284-13.1671-7.30414-13.92453-8.06489-.84108-1.13449-5.59511-3.51167-8.40843-4.85195l-9.03508-5.27049,6.60745-1.239c4.10779-.48858,14.94982-1.74322,16.33524-1.74322.59446,0,2.78145.19583,5.0969.40294,6.83248.61073,10.03315.84506,10.93862.61936.97384-.24363,10.51177-1.167,16.66582-1.72663l9.82371-.70167-.07-.97915Zm-69.90844-9.04139,12.59786-4.76631,16.95758-1.72994,14.08751,1.37413,18.72171,9.70522,1.72762,1.021-8.31814.59413c-1.58822.14472-15.55723,1.42126-16.98779,1.77907-.852.1726-6.74751-.35515-10.2698-.67047-2.56638-.22969-4.59305-.41091-5.27879-.41091-1.79368,0-16.006,1.68945-16.61007,1.76181l-9.02412,1.68978-4.052-2.36357Z"/><path d="M279.609,264.52128a54.60012,54.60012,0,0,1-6.99679,3.26206c-1.05815,0-7.257,2.89033-12.30213,5.32991-.87094.26686-9.10445,2.78411-11.02126,3.10408l.33556,2.01141c2.1475-.35847,10.98376-3.07355,11.35916-3.18905l.14438-.05643c4.99766-2.41834,10.65716-4.99865,11.54072-5.16262,1.22012-.0697,5.60506-2.29154,8.13725-3.62452l.24694-.13011,1.87864-3.0523h-2.39477Z"/><path d="M289.23855,182.6164l-1.31074.90746q.89916-.11253,1.784-.22338Z"/><path d="M293.852,192.86264l2.57185,4.50011-1.28534,4.49945,1.961.56028,1.52133-5.32526-3.0201-5.28476-5.88885-8.512q-.88323.11052-1.784.22338l-.36577.25291Z"/><path d="M355.06755,190.48554l8.93765-.86494s22.2,6.63116,23.06489,7.49609,12.10907,5.76623,12.10907,5.76623l6.59421.57248.85949-6.017-4.8589-6.95289-14.12725-10.3792-16.14542-7.7844L361.4104,168.8622l-3.578-50.99063-8.53111-12.72612-12.68569-10.3792-16.43373-8.07272-17.01036-.28831L271.169,90.44158,241.76128,96.2078,240.01742,91.167a49.73,49.73,0,0,0-6.90547-1.302c-1.72987,0-17.28455,4.819-17.28455,4.819L206.299,99.66754l-2.01818,5.76622-13.55062,7.49609-10.95583,13.83893-6.34284,13.26231s-3.17142,13.26231-3.17142,14.12725,1.72986,8.07271,2.88311,8.64933,10.09089,2.88311,10.09089,2.88311l11.65934,5.76793,16.88346,9.80087,21.04671,6.91947s19.89347-1.44156,21.91164-1.44156,32.00254-3.17142,33.73241-3.17142,34.59733-2.5948,35.46226-2.5948S344.4,180.683,344.4,180.683l7.7844,6.91947Z" fill="#c82727"/><polyline points="347.255 218.807 349.886 224.333 351.465 230.648 350.675 234.595 347.255 243.279 336.466 245.121 319.099 241.963 316.994 235.911 317.784 230.385 319.626 221.702 324.099 216.702 326.993 218.281 346.202 218.807"/><path d="M268.05133,218.01787l3.15761,6.05207.26313,7.36775-1.5788,6.57834-3.42074,5.26268-5.52581.26313-21.0507-6.31521-8.42028-7.36775,1.05253-4.7364,2.89447-4.47328,3.8593-3.06989,14.8232.43856S267.52506,219.0704,268.05133,218.01787Z"/><path d="M403.96891,191.3491l-8.24247-7.168L383.9431,176.316l-19.39567-7.05255-2.744-1.05084-.81834-16.714c-.98429-8.15517-2.44871-20.64582-2.44871-21.63029,0-1.42126-.67511-11.56594-.704-11.99676l-.01494-.22637L352.02922,107.154l-9.66787-10.02585-14.8622-8.49307-12.28769-3.64244H298.224L281.56665,87.1116c-6.7359,1.12254-17.20187,2.79274-18.42731,2.79274-1.81591,0-15.82574,3.17245-17.44914,3.54221l-4.88713,1.2782.79427-.3973-1.57992-3.1605-5.154-1.9822-7.60684.72424-12.23508,2.86974-9.19938,5.88752-1.87466,4.87319,1.27588.49024L200.08,105.37494l-.15334.03983-10.784,6.83016-7.46478,8.53157-6.77573,11.37807-5.40559,18.61981V157.501l3.47649,6.17961,21.92039,7.77811,7.33368,6.63567,16.28213,7.43292,14.36531,3.60859,26.86594-1.76845,38.91148-4.2067,27.6705-2.10169,23.04475.34917L373.71,184.886l19.15718,9.056.87161-1.84413-19.43566-9.18743-24.71147-3.53025-23.33086-.36179-27.79546,2.11165-38.90136,4.206-26.50481,1.74455-13.78778-3.44728-15.91006-7.26365-7.40172-6.69673-21.58449-7.65863-2.8392-5.04711v-5.90478l5.18651-17.97922,6.55169-11.03487,7.20888-8.23815,10.26682-6.50224,45.42434-11.88059c5.92536-1.34692,15.771-3.48379,16.96521-3.48379,1.787,0,17.03027-2.53185,18.724-2.81465l16.42535-2.097h16.629l11.67347,3.43334,14.50489,8.28926,9.27788,9.62092,5.43877,9.8579c.24529,3.69156.68441,10.57417.68441,11.635,0,1.42326,2.21123,19.78551,2.45834,21.82015l.76788,15.7275-11.79014-4.51538-23.29452-2.47078L307.00434,158.666l-17.30708,1.41264-19.9986,2.10567-23.28688,5.28477-17.45446,4.18944-11.70733.68839L202.28988,169.355l7.62311,5.54366,6.174,3.6378,14.17678,3.5442,13.904.381.071.00133,12.39573-1.41728,17.54573-2.80734,17.14644-2.79938,19.23054-1.39869,13.272-.69835,16.01494,1.04155,21.71758,2.80269,28.00125,5.32725,4.87452,3.24946,7.847,6.82352,2.24774,5.1374-.54385,3.80641-4.18031.27881-8.23516-3.77256L376.48644,192.072l-11.85354-3.596-10.37851,1.07408.20977,2.02867,9.97025-1.0316,11.3414,3.43666,14.99729,5.92735,8.655,3.96773,6.34524-.42353.85949-6.017ZM206.02426,103.82024l1.46076-3.79711,8.34238-5.3392,11.69173-2.75158,7.05952-.67247L238.547,92.7867l1.11789,2.23578Zm155.89323,71.35792-.19052,1.00173.13045-1.011-21.8165-2.814-16.19882-1.05616-13.41255.70632-19.29643,1.40334L273.85458,176.225l-17.49694,2.8007-12.20853,1.39538-13.49968-.34586L216.86729,176.63l-5.79492-3.40944-.05576-.04049,6.091,1.21813,12.05983-.70963,17.708-4.23326,23.097-5.24892,19.91429-2.097,17.09881-1.396,17.44417,1.74455,23.02317,2.44224,16.38138,6.27387,19.18158,6.97488,2.18965,1.45977Z"/><ellipse cx="259.95481" cy="229.48615" rx="6.25456" ry="5.26268" transform="translate(-54.64199 83.64635) rotate(-16.56647)" fill="#fff"/><circle cx="245.15869" cy="231.43769" r="2.63134" fill="#fff"/><circle cx="243.57989" cy="223.28054" r="2.63134" fill="#fff"/><circle cx="328.30896" cy="234.85843" r="2.3682" fill="#fff"/><circle cx="328.04583" cy="225.64874" r="2.63134" fill="#fff"/><circle cx="342.25505" cy="230.91142" r="4.73641" fill="#fff"/></svg>
